<svg xmlns="http://www.w3.org/2000/svg" viewBox="0 0 64 64" fill="none">
  <defs>
    <linearGradient id="mg" x1="0%" y1="0%" x2="0%" y2="100%">
      <stop offset="0%" stop-color="#15803d"/>
      <stop offset="100%" stop-color="#14532d"/>
    </linearGradient>
    <linearGradient id="sg" x1="0%" y1="0%" x2="100%" y2="100%">
      <stop offset="0%" stop-color="#ca8a04"/>
      <stop offset="100%" stop-color="#a16207"/>
    </linearGradient>
  </defs>
  
  <!-- Tree leaves -->
  <ellipse cx="18" cy="6" rx="4" ry="6" fill="#15803d" transform="rotate(-30 18 6)"/>
  <ellipse cx="24" cy="3" rx="3.5" ry="5.5" fill="#166534" transform="rotate(-15 24 3)"/>
  <ellipse cx="30" cy="4" rx="3" ry="5" fill="#15803d" transform="rotate(10 30 4)"/>
  <ellipse cx="21" cy="1" rx="2.5" ry="4.5" fill="#22c55e" transform="rotate(-20 21 1)"/>
  
  <!-- Tree trunk -->
  <path d="M19 10 C19 10, 17 6, 22 3" stroke="#14532d" stroke-width="1.5" fill="none" stroke-linecap="round"/>
  
  <!-- B shape -->
  <path d="M24 12 C24 12, 25 5, 32 3 C39 1, 47 5, 49 12 C51 19, 47 26, 42 30 C47 32, 51 36, 49 42 C47 48, 39 52, 32 52 C25 52, 24 48, 24 48"
        stroke="#14532d" stroke-width="3" fill="none" stroke-linecap="round" stroke-linejoin="round"/>
  
  <!-- Mountains -->
  <path d="M29 42 L34 30 L39 38 L42 33 L47 42 Z" fill="url(#mg)" opacity="0.9"/>
  
  <!-- Sun -->
  <circle cx="38" cy="22" r="4" fill="url(#sg)"/>
  <g stroke="#ca8a04" stroke-width="0.8" stroke-linecap="round" opacity="0.7">
    <line x1="38" y1="16" x2="38" y2="14"/>
    <line x1="42" y1="18" x2="43.5" y2="16.5"/>
    <line x1="44" y1="22" x2="46" y2="22"/>
    <line x1="42" y1="26" x2="43.5" y2="27.5"/>
    <line x1="38" y1="28" x2="38" y2="30"/>
    <line x1="34" y1="26" x2="32.5" y2="27.5"/>
    <line x1="32" y1="22" x2="30" y2="22"/>
    <line x1="34" y1="18" x2="32.5" y2="16.5"/>
  </g>
  
  <!-- Book -->
  <path d="M27 48 C27 48, 32 50, 32 51 C32 50, 37 48, 37 48" stroke="#ca8a04" stroke-width="1.5" fill="none" stroke-linecap="round"/>
</svg>
